<svg width="81" height="80" viewBox="0 0 81 80" fill="none" xmlns="http://www.w3.org/2000/svg">
<path d="M40.1233 80C32.1985 80 24.4516 77.654 17.8624 73.2588C11.2731 68.8635 6.13744 62.6164 3.10475 55.3073C0.0720484 47.9983 -0.721443 39.9556 0.824612 32.1964C2.37067 24.4372 6.18683 17.3098 11.7905 11.7157C17.3942 6.12165 24.5338 2.31202 32.3063 0.768607C40.0789 -0.774802 48.1353 0.0173314 55.4569 3.04484C62.7785 6.07234 69.0363 11.1992 73.4391 17.7772C77.8419 24.3552 80.1919 32.0888 80.1919 40C80.1919 45.2529 79.1555 50.4543 77.1419 55.3073C75.1282 60.1604 72.1768 64.5699 68.4561 68.2843C64.7354 71.9986 60.3182 74.945 55.4569 76.9552C50.5956 78.9654 45.3852 80 40.1233 80ZM40.1233 2.22224C32.6388 2.22224 25.3223 4.43787 19.0991 8.58894C12.8759 12.74 8.02555 18.6401 5.16133 25.5431C2.29712 32.4461 1.54771 40.0419 3.00787 47.3701C4.46804 54.6983 8.07219 61.4296 13.3646 66.7129C18.6569 71.9962 25.3998 75.5942 32.7406 77.0519C40.0813 78.5096 47.6902 77.7614 54.605 74.9021C61.5199 72.0428 67.4301 67.2007 71.5882 60.9882C75.7464 54.7757 77.9659 47.4717 77.9659 40C77.9659 35.039 76.987 30.1265 75.0853 25.5431C73.1835 20.9597 70.3961 16.7951 66.882 13.2871C63.368 9.7791 59.1963 6.99641 54.605 5.0979C50.0138 3.19939 45.0929 2.22224 40.1233 2.22224Z" fill="#A1D318"/>
<path d="M30.9071 46.1557C30.2646 46.157 29.6286 46.0285 29.0372 45.778C28.4602 45.5378 27.9434 45.1736 27.5235 44.7113C27.0847 44.2637 26.7369 43.7354 26.4995 43.1557C26.2502 42.5493 26.1216 41.9001 26.1211 41.2446C26.1233 40.5986 26.244 39.9584 26.4773 39.3557C26.6951 38.7749 27.0197 38.2398 27.4345 37.778C27.8692 37.3327 28.3823 36.9711 28.9482 36.7113C29.5419 36.4411 30.1878 36.3046 30.8403 36.3113C31.3861 36.3056 31.9286 36.3959 32.443 36.5779C32.9571 36.7637 33.4325 37.0425 33.8454 37.4002C33.9155 37.4391 33.9759 37.4933 34.0221 37.5587C34.0684 37.6241 34.0993 37.699 34.1126 37.778V38.0446C34.0902 38.0996 34.057 38.1496 34.0149 38.1916C33.9728 38.2336 33.9228 38.2667 33.8677 38.2891C33.6673 38.4891 33.5783 38.4891 33.4893 38.4891C33.3334 38.4939 33.1817 38.4382 33.0663 38.3335C32.787 38.0989 32.4712 37.9112 32.1314 37.778C31.7501 37.6564 31.3518 37.5964 30.9516 37.6002C30.4912 37.6035 30.0365 37.7019 29.616 37.8891C29.2087 38.081 28.8392 38.3445 28.5252 38.6668C28.2077 39.0053 27.9516 39.3963 27.7684 39.8224C27.5879 40.2592 27.4971 40.7277 27.5012 41.2002C27.4971 41.6798 27.5879 42.1556 27.7684 42.6002C27.9516 43.0262 28.2077 43.4172 28.5252 43.7557C28.841 44.076 29.2101 44.3391 29.616 44.5335C30.0381 44.7131 30.4928 44.8038 30.9516 44.8002C31.339 44.8025 31.7237 44.7348 32.0869 44.6002C32.4596 44.4692 32.8062 44.2736 33.1108 44.0224C33.2264 43.9358 33.367 43.8891 33.5115 43.8891C33.6867 43.896 33.8531 43.9672 33.979 44.0891C34.0423 44.1493 34.0927 44.2217 34.1271 44.3019C34.1616 44.3821 34.1793 44.4685 34.1793 44.5557V44.8002C34.1404 44.8826 34.0877 44.9577 34.0235 45.0224C33.6261 45.4174 33.1365 45.7076 32.5989 45.8668C32.0532 46.0495 31.4825 46.147 30.9071 46.1557Z" fill="#A1D318"/>
<path d="M40.0571 46.1568C39.3856 46.1603 38.72 46.0319 38.0982 45.779C37.5145 45.5476 36.9844 45.1996 36.5404 44.7564C36.0963 44.3131 35.7477 43.7839 35.516 43.2012C35.2702 42.5789 35.1492 41.9145 35.1598 41.2457C35.1509 40.577 35.2719 39.9129 35.516 39.2901C35.7534 38.7104 36.1011 38.1821 36.54 37.7345C36.9904 37.299 37.519 36.9522 38.0982 36.7123C38.72 36.4594 39.3856 36.331 40.0571 36.3345C40.7214 36.331 41.3797 36.4594 41.9937 36.7123C42.5796 36.9521 43.1156 37.2988 43.5742 37.7345C44.0057 38.188 44.3525 38.7148 44.5982 39.2901C45.0731 40.5507 45.0731 41.9406 44.5982 43.2012C44.3579 43.7794 44.0105 44.3071 43.5742 44.7568C43.1215 45.2 42.584 45.5477 41.9937 45.779C41.3797 46.0319 40.7214 46.1603 40.0571 46.1568ZM40.0571 37.6457C39.5667 37.6363 39.0803 37.735 38.6324 37.9345C38.205 38.104 37.8182 38.3614 37.4972 38.6901C37.182 39.0176 36.9327 39.4023 36.7626 39.8234C36.582 40.2757 36.4913 40.7588 36.4954 41.2457C36.4866 42.2012 36.8451 43.1238 37.4972 43.8234C37.8281 44.14 38.2124 44.3958 38.6324 44.579C39.085 44.7609 39.5692 44.8515 40.0571 44.8457C40.5377 44.8515 41.0147 44.7609 41.4595 44.579C41.8854 44.4067 42.2717 44.1496 42.5948 43.8234C42.9172 43.4889 43.174 43.0969 43.3516 42.6679C43.5157 42.2117 43.5986 41.7304 43.5965 41.2457C43.5968 40.7611 43.514 40.2801 43.3516 39.8234C43.179 39.3983 42.9215 39.0126 42.5948 38.6901C42.2774 38.3571 41.8895 38.0989 41.4595 37.9345C41.0196 37.7346 40.5403 37.6359 40.0571 37.6457Z" fill="#A1D318"/>
<path d="M46.7327 46.0447C46.6449 46.0475 46.5575 46.031 46.4767 45.9965C46.396 45.9619 46.3238 45.9101 46.2652 45.8447C46.1984 45.7842 46.145 45.7105 46.1084 45.6282C46.0718 45.5459 46.0529 45.4569 46.0529 45.3669C46.0529 45.2769 46.0718 45.1878 46.1084 45.1055C46.145 45.0233 46.1984 44.9495 46.2652 44.8891L49.6933 40.7113C49.8689 40.5165 50.0185 40.2999 50.1385 40.0669C50.2273 39.8626 50.28 39.6446 50.2944 39.4224C50.3022 39.1213 50.2333 38.8231 50.094 38.5558C49.9782 38.314 49.792 38.1126 49.5598 37.978C49.3242 37.8392 49.0541 37.7698 48.7807 37.778C48.5079 37.7754 48.2392 37.8444 48.0015 37.978C47.7724 38.1327 47.582 38.338 47.445 38.578C47.3085 38.8383 47.2396 39.1287 47.2447 39.4224C47.2438 39.5944 47.1805 39.7602 47.0666 39.8891C47.0025 39.9536 46.9262 40.0048 46.8421 40.0397C46.7581 40.0747 46.6679 40.0927 46.5769 40.0927C46.4858 40.0927 46.3957 40.0747 46.3116 40.0397C46.2276 40.0048 46.1513 39.9536 46.0872 39.8891C46.0239 39.8289 45.9735 39.7565 45.939 39.6763C45.9046 39.5961 45.8868 39.5097 45.8868 39.4224C45.8826 38.8949 46.0128 38.3749 46.2652 37.9113C46.5184 37.4735 46.8783 37.1065 47.3115 36.8447C47.7535 36.5753 48.2629 36.4366 48.7807 36.4447C49.2953 36.4379 49.8025 36.5683 50.2498 36.8224C50.6753 37.0797 51.0218 37.4487 51.2516 37.8891C51.5068 38.3596 51.637 38.8875 51.63 39.4224C51.635 39.695 51.5897 39.9662 51.4964 40.2224C51.4004 40.4773 51.2812 40.7227 51.1403 40.9558C50.9895 41.1727 50.826 41.3805 50.6505 41.578L47.9793 44.6891H51.2516C51.4269 44.6947 51.5935 44.7667 51.7176 44.8905C51.8417 45.0144 51.9138 45.1807 51.9194 45.3558C51.9239 45.4469 51.9084 45.538 51.8737 45.6225C51.8391 45.707 51.7863 45.7828 51.719 45.8447C51.6587 45.9079 51.5862 45.9582 51.5059 45.9926C51.4255 46.0269 51.339 46.0447 51.2516 46.0447H46.7327Z" fill="#A1D318"/>
<path d="M34.1127 64.4439C30.9241 64.328 27.9113 62.9559 25.7336 60.6278C23.5559 58.2998 22.3907 55.2053 22.4929 52.0217C22.4711 51.6739 22.4711 51.3251 22.4929 50.9773C20.5497 50.4451 18.839 49.2829 17.63 47.6737C16.4211 46.0645 15.7825 44.0996 15.8148 42.0884C15.8148 42.0884 15.8148 41.8661 15.8148 41.8217C15.7278 39.7721 16.3415 37.7538 17.5549 36.0982C18.7684 34.4427 20.5097 33.2481 22.4929 32.7106C22.4715 32.3554 22.4715 31.9992 22.4929 31.6439C22.4303 30.0601 22.6815 28.4796 23.2321 26.9929C23.7826 25.5062 24.6217 24.1427 25.7012 22.9804C26.7807 21.8181 28.0794 20.8799 29.5228 20.2197C30.9663 19.5594 32.526 19.1901 34.1127 19.1328C35.9331 19.1453 37.7234 19.5962 39.3318 20.4474C40.9401 21.2985 42.3188 22.5247 43.3508 24.0217C44.7522 22.906 46.4785 22.2743 48.2703 22.2217C49.5635 22.2242 50.8386 22.5243 51.9968 23.0985C53.155 23.6727 54.165 24.5057 54.9484 25.5328C55.0542 25.6447 55.1356 25.7773 55.1874 25.9222C55.2391 26.0671 55.2602 26.2212 55.2492 26.3747C55.2382 26.5281 55.1954 26.6777 55.1236 26.8138C55.0517 26.9499 54.9523 27.0696 54.8316 27.1653C54.711 27.261 54.5717 27.3307 54.4227 27.3699C54.2736 27.4091 54.1181 27.417 53.9658 27.3931C53.8136 27.3691 53.668 27.3139 53.5382 27.2308C53.4085 27.1478 53.2974 27.0387 53.2121 26.9106C52.6623 26.2147 51.9704 25.6436 51.1824 25.2353C50.3944 24.827 49.5284 24.5908 48.6419 24.5424C47.7554 24.4941 46.8688 24.6347 46.0409 24.9549C45.2131 25.2751 44.463 25.7675 43.8405 26.3995C43.7199 26.5293 43.5705 26.629 43.4042 26.6908C43.238 26.7525 43.0596 26.7745 42.8833 26.755C42.709 26.7337 42.5427 26.6698 42.3991 26.569C42.2554 26.4683 42.1389 26.3337 42.0597 26.1773C41.2787 24.7453 40.1322 23.5449 38.7366 22.698C37.3409 21.8511 35.7457 21.3878 34.1127 21.355C31.5144 21.4705 29.0676 22.6083 27.3072 24.5197C25.5469 26.4311 24.6163 28.9606 24.7189 31.555C24.7202 32.1583 24.7723 32.7605 24.8747 33.355C24.9008 33.5035 24.8945 33.6558 24.856 33.8016C24.8176 33.9474 24.7481 34.0831 24.6521 34.1995C24.5584 34.3216 24.4412 34.4238 24.3074 34.5001C24.1737 34.5765 24.026 34.6253 23.873 34.6439C22.1689 34.8129 20.5949 35.6289 19.4764 36.9234C18.3578 38.2179 17.7801 39.8919 17.8627 41.5995C17.8627 41.5995 17.8627 41.7995 17.8627 41.8217H16.7497L17.8404 41.9773C17.7677 43.6635 18.3384 45.3145 19.4374 46.5972C20.5363 47.8798 22.0817 48.6986 23.7617 48.8884C23.9143 48.899 24.0628 48.9422 24.1972 49.015C24.3316 49.0878 24.4488 49.1886 24.5408 49.3106C24.6361 49.4318 24.705 49.5714 24.7434 49.7206C24.7817 49.8698 24.7885 50.0253 24.7634 50.1773C24.6601 50.7642 24.608 51.3591 24.6076 51.955C24.5479 53.2542 24.7473 54.5523 25.1942 55.7739C25.6411 56.9956 26.3265 58.1165 27.2108 59.0715C28.095 60.0266 29.1604 60.7969 30.3453 61.3377C31.5301 61.8784 32.8107 62.1789 34.1127 62.2217C35.7699 62.1959 37.3897 61.7266 38.8032 60.8627C40.2167 59.9989 41.3721 58.7722 42.1487 57.3106C42.2291 57.1571 42.3465 57.0259 42.4902 56.9289C42.634 56.8319 42.7997 56.7722 42.9724 56.755C43.147 56.7291 43.3254 56.7459 43.4921 56.8039C43.6588 56.862 43.809 56.9596 43.9296 57.0884C44.4976 57.7018 45.186 58.1919 45.9519 58.5283C46.7178 58.8648 47.5449 59.0403 48.3816 59.0439C49.2705 59.0156 50.1448 58.8104 50.9531 58.4402C51.7614 58.07 52.4876 57.5424 53.0889 56.8883C53.6902 56.2342 54.1546 55.4668 54.4548 54.6311C54.755 53.7954 54.885 52.9082 54.8371 52.0217C54.8275 51.3891 54.7302 50.7609 54.5477 50.155C54.4842 49.8692 54.5236 49.5702 54.659 49.3106C54.8148 49.0581 55.0619 48.8751 55.3491 48.7995C56.8067 48.3654 58.0806 47.4642 58.9738 46.2351C59.867 45.006 60.3299 43.5175 60.2909 41.9995C60.2909 41.9995 60.2909 41.7773 60.2909 41.755C60.3704 40.213 59.9286 38.689 59.0365 37.4277C58.1443 36.1663 56.8536 35.2407 55.3714 34.7995C55.0762 34.7258 54.8224 34.5381 54.6658 34.2776C54.5093 34.0172 54.4628 33.7053 54.5366 33.4106C54.6104 33.1159 54.7984 32.8626 55.0594 32.7063C55.3203 32.55 55.6327 32.5036 55.9279 32.5773C57.8671 33.1163 59.5735 34.2802 60.7813 35.8879C61.9891 37.4955 62.6306 39.4567 62.606 41.4661C62.6169 41.5398 62.6169 41.6147 62.606 41.6884C62.6691 43.5403 62.1719 45.3682 61.1792 46.9339C60.1866 48.4996 58.7445 49.7305 57.0409 50.4661C57.1264 50.9355 57.1711 51.4113 57.1745 51.8884C57.2221 53.0668 57.0343 54.2428 56.6221 55.3481C56.2099 56.4533 55.5814 57.4656 54.7734 58.326C53.9655 59.1864 52.994 59.8777 51.9158 60.3595C50.8375 60.8414 49.674 61.1043 48.4929 61.1328C46.6732 61.1298 44.9051 60.5284 43.4621 59.4217C42.4373 60.9616 41.0481 62.2254 39.4173 63.1014C37.7866 63.9774 35.9646 64.4385 34.1127 64.4439Z" fill="#A1D318"/>
<path d="M60.1132 24.4446C59.2327 24.4446 58.3719 24.1839 57.6398 23.6955C56.9076 23.2072 56.337 22.513 56 21.7009C55.6631 20.8888 55.5749 19.9952 55.7467 19.133C55.9185 18.2709 56.3425 17.479 56.9651 16.8574C57.5877 16.2358 58.381 15.8126 59.2446 15.6411C60.1083 15.4696 61.0034 15.5576 61.8169 15.894C62.6304 16.2304 63.3258 16.8 63.815 17.5309C64.3042 18.2618 64.5653 19.1211 64.5653 20.0001C64.5653 21.1789 64.0962 22.3093 63.2613 23.1428C62.4264 23.9763 61.294 24.4446 60.1132 24.4446ZM60.1132 17.7779C59.6729 17.7779 59.2426 17.9082 58.8765 18.1524C58.5104 18.3966 58.2251 18.7436 58.0566 19.1497C57.8881 19.5558 57.844 20.0026 57.9299 20.4336C58.0158 20.8647 58.2278 21.2607 58.5392 21.5715C58.8505 21.8822 59.2471 22.0939 59.6789 22.1796C60.1107 22.2654 60.5583 22.2214 60.9651 22.0532C61.3718 21.885 61.7195 21.6002 61.9641 21.2347C62.2087 20.8693 62.3392 20.4396 62.3392 20.0001C62.3392 19.4107 62.1047 18.8455 61.6872 18.4288C61.2698 18.012 60.7036 17.7779 60.1132 17.7779Z" fill="#A1D318"/>
<path d="M55.77 34.9544C54.759 34.9632 53.7682 34.6717 52.9236 34.1169C52.079 33.5622 51.4187 32.7692 51.0267 31.8388C50.6347 30.9085 50.5287 29.8827 50.7221 28.8921C50.9156 27.9014 51.3997 26.9905 52.1131 26.2753C52.8264 25.56 53.7367 25.0727 54.7282 24.8752C55.7197 24.6777 56.7477 24.7791 57.6813 25.1663C58.615 25.5535 59.4122 26.2092 59.9717 27.0499C60.5311 27.8907 60.8275 28.8785 60.8231 29.8878C60.8231 31.2277 60.2915 32.5131 59.3445 33.4626C58.3975 34.4122 57.1122 34.9486 55.77 34.9544ZM55.77 27.0211C55.2003 27.0123 54.6408 27.1729 54.1627 27.4825C53.6847 27.7921 53.3097 28.2366 53.0855 28.7596C52.8613 29.2826 52.7981 29.8603 52.9038 30.4193C53.0095 30.9783 53.2794 31.4932 53.6792 31.8986C54.079 32.3039 54.5905 32.5814 55.1487 32.6957C55.7069 32.8099 56.2866 32.7558 56.8139 32.5402C57.3412 32.3246 57.7923 31.9573 58.1099 31.4849C58.4274 31.0126 58.597 30.4566 58.5971 29.8878C58.6 29.5142 58.5292 29.1438 58.3887 28.7975C58.2482 28.4513 58.0408 28.1361 57.7783 27.8699C57.5158 27.6037 57.2033 27.3917 56.8587 27.2461C56.5141 27.1005 56.1442 27.024 55.77 27.0211Z" fill="#A1D318"/>
</svg>
