<svg width="58" height="57" viewBox="0 0 58 57" fill="none" xmlns="http://www.w3.org/2000/svg">
<path d="M56.9511 39.031L47.334 28.4882H53.6083C53.852 28.4864 54.0902 28.4153 54.295 28.2832C54.4999 28.1512 54.663 27.9637 54.7654 27.7425C54.8687 27.5278 54.9091 27.2882 54.8818 27.0516C54.8545 26.8149 54.7606 26.5908 54.6111 26.4053L47.0768 16.891H50.3425C50.5907 16.8932 50.8342 16.8235 51.0437 16.6904C51.2531 16.5572 51.4195 16.3663 51.5228 16.1406C51.6262 15.9149 51.6619 15.6642 51.6259 15.4186C51.5899 15.1731 51.4835 14.9432 51.3197 14.7568L38.7968 0.45962C38.668 0.322644 38.5127 0.213269 38.3403 0.138125C38.1679 0.0629817 37.982 0.0236374 37.794 0.0224781C37.6042 0.0214672 37.4168 0.065172 37.2471 0.150053C37.0773 0.234934 36.9299 0.358604 36.8168 0.511048L30.3368 8.73962C30.0351 6.36547 28.89 4.17888 27.1104 2.57866C25.3308 0.978447 23.0353 0.0712296 20.6425 0.0224781C18.142 0.0816522 15.7543 1.07552 13.9503 2.80812C12.1463 4.54073 11.0569 6.88633 10.8968 9.38248C9.55031 9.37179 8.21535 9.63169 6.97119 10.1468C5.72702 10.6618 4.599 11.4216 3.65405 12.3809C2.7091 13.3403 1.96649 14.4796 1.47028 15.7314C0.974069 16.9832 0.734371 18.322 0.765408 19.6682C0.742742 22.3859 1.79664 25.0022 3.69684 26.9453C1.73791 28.8934 0.62871 31.537 0.611123 34.2996C0.580379 35.6201 0.810105 36.9336 1.28717 38.1652C1.76424 39.3969 2.47931 40.5224 3.39151 41.4776C4.30372 42.4328 5.39518 43.1989 6.60356 43.7321C7.81193 44.2654 9.11352 44.5553 10.434 44.5853H19.8711V55.231C19.8777 55.57 20.0153 55.8932 20.255 56.1329C20.4947 56.3726 20.8179 56.5102 21.1568 56.5168C21.4978 56.5168 21.8249 56.3813 22.066 56.1402C22.3071 55.8991 22.4425 55.572 22.4425 55.231V44.5339H31.0311C33.3466 44.5163 35.5766 43.6572 37.3054 42.1168V47.2596C37.3054 47.6006 37.4409 47.9276 37.682 48.1688C37.9231 48.4099 38.2501 48.5453 38.5911 48.5453C38.93 48.5387 39.2533 48.4012 39.493 48.1615C39.7327 47.9218 39.8703 47.5986 39.8768 47.2596V41.1653H55.8968C56.1428 41.1626 56.3829 41.0893 56.5885 40.9542C56.794 40.8191 56.9566 40.6279 57.0567 40.4032C57.1569 40.1785 57.1905 39.9298 57.1535 39.6866C57.1166 39.4434 57.0106 39.2159 56.8483 39.031H56.9511ZM31.2368 41.9625H22.5454V35.5853L30.7483 29.2853C30.8935 29.1868 31.0171 29.0596 31.1113 28.9116C31.2056 28.7635 31.2685 28.5977 31.2963 28.4244C31.324 28.2511 31.316 28.0739 31.2726 27.9038C31.2293 27.7337 31.1516 27.5743 31.0444 27.4354C30.9371 27.2965 30.8025 27.181 30.6489 27.096C30.4953 27.0111 30.326 26.9585 30.1513 26.9415C29.9766 26.9245 29.8002 26.9435 29.6332 26.9972C29.4661 27.0509 29.3117 27.1383 29.1797 27.2539L22.5454 32.3968V24.3739L27.3283 20.7225C27.4735 20.624 27.5971 20.4968 27.6913 20.3487C27.7856 20.2006 27.8485 20.0348 27.8763 19.8615C27.904 19.6882 27.896 19.5111 27.8526 19.341C27.8093 19.1709 27.7316 19.0115 27.6244 18.8725C27.5171 18.7336 27.3825 18.6181 27.2289 18.5332C27.0753 18.4483 26.906 18.3957 26.7313 18.3787C26.5566 18.3617 26.3802 18.3806 26.2132 18.4343C26.0461 18.4881 25.8917 18.5754 25.7597 18.691L22.5454 21.2625V14.2168C22.5454 13.8758 22.4099 13.5487 22.1688 13.3076C21.9277 13.0665 21.6007 12.931 21.2597 12.931C20.9187 12.931 20.5917 13.0665 20.3506 13.3076C20.1094 13.5487 19.974 13.8758 19.974 14.2168V27.0739L15.4226 23.5768C15.2905 23.4611 15.1362 23.3738 14.9691 23.32C14.802 23.2663 14.6257 23.2474 14.451 23.2644C14.2763 23.2814 14.1069 23.334 13.9533 23.4189C13.7997 23.5038 13.6652 23.6193 13.5579 23.7583C13.4506 23.8972 13.3729 24.0566 13.3296 24.2267C13.2863 24.3968 13.2782 24.5739 13.306 24.7472C13.3337 24.9206 13.3966 25.0863 13.4909 25.2344C13.5851 25.3825 13.7087 25.5097 13.854 25.6082L19.974 30.3139V38.491L12.4397 33.3482C12.2999 33.2508 12.1422 33.1821 11.9757 33.1462C11.8092 33.1103 11.6373 33.1078 11.4698 33.1389C11.3023 33.17 11.1427 33.2341 11.0002 33.3274C10.8577 33.4207 10.7351 33.5414 10.6397 33.6825C10.4497 33.9669 10.3783 34.3142 10.4408 34.6505C10.5032 34.9867 10.6946 35.2853 10.974 35.4825L19.974 41.7053V42.0653H10.5368C9.55403 42.0354 8.58675 41.8121 7.6903 41.4081C6.79385 41.0041 5.98581 40.4275 5.31236 39.711C4.63891 38.9946 4.11327 38.1525 3.76547 37.2328C3.41767 36.3131 3.25454 35.3338 3.28541 34.351C3.26818 33.1296 3.54127 31.9215 4.0822 30.8262C4.62314 29.731 5.41645 28.7798 6.39684 28.051C6.56148 27.9318 6.69551 27.7753 6.78794 27.5943C6.88038 27.4132 6.92857 27.2129 6.92857 27.0096C6.92857 26.8064 6.88038 26.606 6.78794 26.425C6.69551 26.2439 6.56148 26.0874 6.39684 25.9682C5.39037 25.2455 4.57279 24.291 4.0133 23.1854C3.4538 22.0798 3.16885 20.8558 3.18255 19.6168C3.15169 18.634 3.31481 17.6548 3.66261 16.7351C4.01041 15.8154 4.53606 14.9732 5.2095 14.2568C5.88295 13.5404 6.691 12.9637 7.58745 12.5597C8.48389 12.1557 9.45117 11.9324 10.434 11.9025C10.8826 11.9064 11.33 11.9494 11.7711 12.031C11.9626 12.0732 12.1616 12.067 12.3501 12.0131C12.5386 11.9593 12.7108 11.8594 12.8511 11.7225C12.9998 11.5975 13.1168 11.4392 13.1928 11.2605C13.2687 11.0818 13.3015 10.8877 13.2883 10.6939V10.2053C13.254 9.22171 13.4147 8.24102 13.7613 7.31982C14.1078 6.39862 14.6333 5.55514 15.3074 4.83801C15.9815 4.12087 16.7909 3.54428 17.6889 3.14147C18.5869 2.73866 19.5558 2.5176 20.5397 2.49105C21.5236 2.5176 22.4924 2.73866 23.3905 3.14147C24.2885 3.54428 25.0979 4.12087 25.772 4.83801C26.4461 5.55514 26.9716 6.39862 27.3181 7.31982C27.6647 8.24102 27.8254 9.22171 27.7911 10.2053V10.771C27.7691 10.9694 27.7977 11.1701 27.8741 11.3544C27.9506 11.5387 28.0724 11.7007 28.2283 11.8253C28.3823 11.9566 28.5645 12.0504 28.7608 12.0995C28.9571 12.1485 29.1621 12.1515 29.3597 12.1082C29.9049 11.9639 30.4672 11.8947 31.0311 11.9025C32.0139 11.9324 32.9812 12.1557 33.8777 12.5597C34.7741 12.9637 35.5821 13.5404 36.2556 14.2568C36.929 14.9732 37.4547 15.8154 37.8025 16.7351C38.1503 17.6548 38.3134 18.634 38.2825 19.6168C38.2998 20.8382 38.0267 22.0463 37.4858 23.1416C36.9448 24.2369 36.1515 25.188 35.1711 25.9168C35.0112 26.0392 34.8815 26.1968 34.7923 26.3774C34.7031 26.558 34.6567 26.7568 34.6567 26.9582C34.6567 27.1596 34.7031 27.3584 34.7923 27.539C34.8815 27.7196 35.0112 27.8772 35.1711 27.9996C36.1515 28.7284 36.9448 29.6795 37.4858 30.7748C38.0267 31.8701 38.2998 33.0782 38.2825 34.2996C38.3316 36.2585 37.6103 38.1585 36.2736 39.5914C34.937 41.0242 33.0916 41.8756 31.134 41.9625H31.2368ZM40.1083 38.5939C40.7313 37.2478 41.0559 35.7829 41.0597 34.2996C41.0379 31.5429 39.9398 28.9038 37.9997 26.9453C39.9053 24.9828 40.9667 22.3522 40.9568 19.6168C40.9557 17.2829 40.1608 15.0189 38.7029 13.1965C37.245 11.3741 35.2106 10.1016 32.934 9.58819L37.8711 3.31391L47.514 14.3196H44.3254C44.0844 14.3191 43.8482 14.3864 43.6436 14.5137C43.439 14.641 43.2743 14.8232 43.1683 15.0396C43.0596 15.2574 43.0163 15.502 43.0437 15.7439C43.0711 15.9857 43.1679 16.2145 43.3225 16.4025L50.8311 25.9168H44.3254C44.0773 25.9137 43.8336 25.9824 43.6237 26.1148C43.4138 26.2471 43.2467 26.4373 43.1425 26.6625C43.0419 26.8914 43.0102 27.1446 43.0513 27.3913C43.0924 27.6379 43.2046 27.8672 43.374 28.051L52.9911 38.5939H40.1083Z" fill="white"/>
</svg>
