<svg width="81" height="80" viewBox="0 0 81 80" fill="none" xmlns="http://www.w3.org/2000/svg">
<g clip-path="url(#clip0)">
<path d="M40.1233 80C32.1985 80 24.4516 77.6541 17.8624 73.2588C11.2731 68.8635 6.13745 62.6164 3.10475 55.3074C0.0720487 47.9983 -0.721444 39.9556 0.824613 32.1964C2.37067 24.4372 6.18683 17.3098 11.7905 11.7157C17.3942 6.12165 24.5338 2.31202 32.3063 0.768607C40.0789 -0.774802 48.1353 0.0173314 55.4569 3.04484C62.7785 6.07234 69.0364 11.1992 73.4392 17.7772C77.8419 24.3552 80.1919 32.0888 80.1919 40C80.1919 50.6087 75.9704 60.7828 68.4561 68.2843C60.9418 75.7857 50.7502 80 40.1233 80ZM40.1233 2.22224C32.6388 2.22224 25.3223 4.43787 19.0991 8.58894C12.8759 12.74 8.02555 18.6401 5.16133 25.5431C2.29712 32.4461 1.54771 40.0419 3.00787 47.3701C4.46804 54.6983 8.0722 61.4296 13.3646 66.7129C18.657 71.9963 25.3999 75.5942 32.7406 77.0519C40.0813 78.5096 47.6902 77.7614 54.605 74.9021C61.5199 72.0428 67.4301 67.2007 71.5883 60.9882C75.7465 54.7757 77.9659 47.4718 77.9659 40C77.9659 29.9807 73.9789 20.3718 66.8821 13.2871C59.7852 6.20239 50.1598 2.22224 40.1233 2.22224Z" fill="#69BB09"/>
<path d="M61.2709 17.7778H18.9763C18.6811 17.7778 18.398 17.8949 18.1893 18.1033C17.9805 18.3116 17.8633 18.5943 17.8633 18.8889C17.8633 19.1836 17.9805 19.4662 18.1893 19.6746C18.398 19.883 18.6811 20.0001 18.9763 20.0001H60.1579V61.1112C60.1579 61.4058 60.2752 61.6885 60.4839 61.8968C60.6927 62.1052 60.9758 62.2223 61.2709 62.2223C61.5661 62.2223 61.8492 62.1052 62.058 61.8968C62.2667 61.6885 62.384 61.4058 62.384 61.1112V18.8889C62.384 18.5943 62.2667 18.3116 62.058 18.1033C61.8492 17.8949 61.5661 17.7778 61.2709 17.7778Z" fill="#69BB09"/>
<path d="M30.3956 37.2666C30.329 37.1919 30.2464 37.1332 30.1539 37.0947C30.0614 37.0563 29.9614 37.0391 29.8614 37.0444C29.7582 37.0403 29.6553 37.058 29.5594 37.0963C29.4635 37.1346 29.3768 37.1926 29.3049 37.2666C29.2365 37.3369 29.1833 37.4206 29.1489 37.5124C29.1144 37.6042 29.0993 37.7021 29.1045 37.8V46.8222C29.1023 46.9164 29.1189 47.0101 29.1533 47.0978C29.1877 47.1855 29.2392 47.2656 29.3049 47.3333C29.4592 47.4664 29.6575 47.5377 29.8614 47.5333C29.9594 47.5385 30.0575 47.5234 30.1494 47.489C30.2414 47.4546 30.3252 47.4016 30.3956 47.3333C30.4613 47.2656 30.5128 47.1855 30.5472 47.0978C30.5816 47.0101 30.5982 46.9164 30.596 46.8222V41.1333C30.5793 40.7627 30.6377 40.3926 30.7678 40.0451C30.8978 39.6976 31.0968 39.3799 31.3528 39.1111C31.6102 38.8566 31.9163 38.6565 32.2529 38.5229C32.5895 38.3893 32.9496 38.3248 33.3117 38.3333C33.6573 38.3158 34.0023 38.379 34.3191 38.5179C34.636 38.6568 34.916 38.8675 35.1371 39.1333C35.3964 39.4387 35.5927 39.7923 35.715 40.1736C35.8372 40.5549 35.8829 40.9565 35.8494 41.3555V46.8888C35.8628 47.0318 35.9155 47.1682 36.0017 47.2831C36.0879 47.3979 36.2043 47.4867 36.338 47.5396C36.4716 47.5926 36.6173 47.6075 36.759 47.5829C36.9006 47.5582 37.0327 47.4949 37.1405 47.4C37.2062 47.3323 37.2577 47.2522 37.2921 47.1645C37.3265 47.0767 37.343 46.983 37.3409 46.8888V41.2444C37.3129 40.8611 37.3636 40.4762 37.4899 40.1132C37.6162 39.7501 37.8155 39.4167 38.0754 39.1333C38.3268 38.8694 38.6314 38.6616 38.969 38.5237C39.3067 38.3858 39.6698 38.3209 40.0344 38.3333C40.38 38.3158 40.7249 38.379 41.0418 38.5179C41.3586 38.6568 41.6387 38.8675 41.8597 39.1333C42.3728 39.756 42.6277 40.5511 42.572 41.3555V46.8888C42.5698 46.983 42.5864 47.0767 42.6208 47.1645C42.6552 47.2522 42.7067 47.3323 42.7724 47.4C42.9199 47.5298 43.11 47.601 43.3066 47.6C43.4047 47.6052 43.5027 47.5901 43.5947 47.5557C43.6866 47.5213 43.7704 47.4682 43.8409 47.4C43.9065 47.3323 43.958 47.2522 43.9924 47.1645C44.0268 47.0767 44.0434 46.983 44.0412 46.8888V41.2888C44.0489 40.5206 43.8814 39.7607 43.5515 39.0666C43.2545 38.4426 42.7829 37.9178 42.1936 37.5555C41.5895 37.1928 40.895 37.0079 40.1902 37.0222C39.4132 36.9923 38.6429 37.1768 37.9641 37.5555C37.4144 37.8816 36.9552 38.34 36.6285 38.8888C36.3368 38.3504 35.9162 37.8923 35.4042 37.5555C34.7909 37.1953 34.09 37.0108 33.3785 37.0222C32.6811 37.0109 31.9945 37.1957 31.3973 37.5555C31.0617 37.7669 30.7613 38.0293 30.5069 38.3333V37.7777C30.5362 37.5994 30.4964 37.4167 30.3956 37.2666Z" fill="#69BB09"/>
<path d="M50.5193 36.4001C50.645 36.2043 50.7495 35.9957 50.8309 35.7778C50.9021 35.555 50.9396 35.3228 50.9422 35.0889C50.9477 34.633 50.8407 34.1827 50.6306 33.7778C50.4351 33.397 50.1336 33.0807 49.7624 32.8667C49.389 32.6352 48.9552 32.5192 48.5158 32.5334C48.0666 32.5213 47.6243 32.6453 47.247 32.8889C46.8713 33.1044 46.5631 33.4198 46.3566 33.8001C46.1322 34.1923 46.0169 34.6373 46.0227 35.0889C46.0208 35.1474 46.0318 35.2055 46.0549 35.2593C46.0779 35.3131 46.1125 35.3611 46.1562 35.4001C46.2351 35.4723 46.3385 35.512 46.4456 35.5112C46.5029 35.5184 46.5611 35.5125 46.6157 35.4938C46.6703 35.4751 46.7199 35.4443 46.7607 35.4035C46.8015 35.3628 46.8325 35.3132 46.8512 35.2587C46.8699 35.2042 46.8758 35.1461 46.8686 35.0889C46.8599 34.7849 46.9371 34.4846 47.0912 34.2223C47.228 33.9628 47.4327 33.7451 47.6836 33.5925C47.9344 33.4399 48.2221 33.358 48.5158 33.3556C48.8063 33.3467 49.093 33.4241 49.3395 33.5778C49.5811 33.7341 49.78 33.948 49.9182 34.2001C50.0575 34.4753 50.1264 34.7807 50.1186 35.0889C50.1096 35.3287 50.0488 35.5637 49.9405 35.7778C49.8343 36.0202 49.6917 36.2451 49.5175 36.4445L46.2008 40.3334C46.1318 40.4142 46.0926 40.5161 46.0895 40.6223C46.0876 40.6807 46.0986 40.7389 46.1216 40.7926C46.1447 40.8464 46.1793 40.8944 46.223 40.9334C46.3165 40.9674 46.4189 40.9674 46.5124 40.9334H50.6973C50.7985 40.9673 50.9079 40.9673 51.009 40.9334C51.0527 40.8944 51.0873 40.8464 51.1104 40.7926C51.1334 40.7389 51.1444 40.6807 51.1425 40.6223C51.1413 40.5676 51.1287 40.5137 51.1058 40.464C51.0828 40.4143 51.0499 40.3699 51.009 40.3334C50.97 40.2898 50.9218 40.2552 50.868 40.2322C50.8141 40.2092 50.7559 40.1982 50.6973 40.2001H47.2915L50.0963 36.9778L50.5193 36.4001Z" fill="#69BB09"/>
<path d="M50.5858 54.7557C50.374 54.5507 50.0905 54.4361 49.7955 54.4361C49.5005 54.4361 49.2171 54.5507 49.0053 54.7557C48.8142 54.9813 48.7189 55.2725 48.7396 55.5672C48.7604 55.8619 48.8957 56.1369 49.1166 56.3335L52.7673 59.5557H20.5121V27.7779L23.584 31.2446C23.687 31.3617 23.8136 31.4559 23.9555 31.521C24.0974 31.5861 24.2515 31.6206 24.4076 31.6224C24.6226 31.6187 24.8321 31.5541 25.0117 31.4362C25.1914 31.3183 25.3338 31.1519 25.4224 30.9564C25.511 30.7608 25.5422 30.5441 25.5123 30.3316C25.4824 30.119 25.3927 29.9193 25.2535 29.7557L20.2227 24.1113C20.1215 23.9919 19.9953 23.8962 19.853 23.8309C19.7106 23.7656 19.5557 23.7324 19.399 23.7335C19.2431 23.7211 19.0865 23.747 18.9429 23.809C18.7993 23.8709 18.6731 23.9671 18.5754 24.0891L13.411 29.7557C13.2057 29.9672 13.0908 30.2501 13.0908 30.5446C13.0908 30.8391 13.2057 31.1221 13.411 31.3335C13.5126 31.437 13.6338 31.5192 13.7676 31.5753C13.9014 31.6314 14.045 31.6603 14.1901 31.6603C14.3352 31.6603 14.4789 31.6314 14.6127 31.5753C14.7465 31.5192 14.8677 31.437 14.9692 31.3335L18.197 27.8002V60.7557C18.197 61.0504 18.3142 61.333 18.523 61.5414C18.7317 61.7498 19.0148 61.8668 19.31 61.8668H52.4556L49.0275 64.9335C48.8608 65.0848 48.7439 65.2831 48.6925 65.5021C48.6411 65.7212 48.6574 65.9507 48.7395 66.1602C48.8215 66.3697 48.9653 66.5495 49.1519 66.6757C49.3385 66.8018 49.559 66.8685 49.7844 66.8668C50.0672 66.903 50.3533 66.8316 50.5858 66.6668L56.2622 61.5113C56.3795 61.4084 56.4738 61.282 56.539 61.1404C56.6042 60.9987 56.6388 60.8449 56.6406 60.6891C56.6268 60.3762 56.4909 60.0811 56.2622 59.8668L50.5858 54.7557Z" fill="#69BB09"/>
</g>
<defs>
<clipPath id="clip0">
<rect width="80.1372" height="80" fill="white" transform="translate(0.0546875)"/>
</clipPath>
</defs>
</svg>
