<svg width="81" height="80" viewBox="0 0 81 80" fill="none" xmlns="http://www.w3.org/2000/svg">
<path d="M40.1233 80C32.1985 80 24.4516 77.654 17.8624 73.2588C11.2731 68.8635 6.13744 62.6164 3.10475 55.3073C0.0720487 47.9983 -0.721443 39.9556 0.824612 32.1964C2.37067 24.4372 6.18683 17.3098 11.7905 11.7157C17.3942 6.12165 24.5338 2.31202 32.3063 0.768607C40.0789 -0.774802 48.1353 0.0173314 55.4569 3.04484C62.7785 6.07234 69.0363 11.1992 73.4391 17.7772C77.8419 24.3552 80.1919 32.0888 80.1919 40C80.1919 50.6087 75.9704 60.7828 68.4561 68.2843C60.9418 75.7857 50.7502 80 40.1233 80ZM40.1233 2.22224C32.6388 2.22224 25.3223 4.43787 19.0991 8.58894C12.8759 12.74 8.02555 18.6401 5.16133 25.5431C2.29712 32.4461 1.54771 40.0419 3.00787 47.3701C4.46804 54.6983 8.07219 61.4296 13.3646 66.7129C18.6569 71.9962 25.3998 75.5942 32.7406 77.0519C40.0813 78.5096 47.6902 77.7614 54.605 74.9021C61.5199 72.0428 67.4301 67.2007 71.5882 60.9882C75.7464 54.7757 77.9659 47.4717 77.9659 40C77.9659 29.9807 73.9789 20.3718 66.882 13.2871C59.7852 6.20239 50.1598 2.22224 40.1233 2.22224Z" fill="#348D50"/>
<path d="M39.0107 48.889C31.0415 48.889 25.0312 42.0223 25.0312 32.9334C25.0312 23.8446 26.0997 15.5557 39.0107 15.5557C44.3087 15.5557 47.9149 17.0223 50.1409 20.0001C50.2271 20.1183 50.2892 20.2523 50.3236 20.3944C50.3579 20.5366 50.3639 20.6841 50.3412 20.8285C50.3185 20.973 50.2674 21.1115 50.1911 21.2363C50.1147 21.361 50.0144 21.4696 49.896 21.5557C49.7776 21.6418 49.6434 21.7037 49.501 21.738C49.3587 21.7723 49.2109 21.7783 49.0662 21.7556C48.9215 21.7329 48.7827 21.682 48.6577 21.6057C48.5328 21.5295 48.4241 21.4294 48.3378 21.3112C46.6238 18.9557 43.5518 17.7779 39.0107 17.7779C29.0604 17.7779 27.2573 22.9112 27.2573 33.0223C27.2573 41.9112 33.3121 46.7557 39.0107 46.7557C44.7094 46.7557 50.7419 41.9334 50.7419 33.0223C50.7419 32.3779 50.7419 31.7557 50.7419 31.1334C50.7471 30.842 50.8623 30.5633 51.0646 30.3531C51.2669 30.143 51.5412 30.0169 51.8327 30.0001C51.9789 29.9972 52.1242 30.023 52.2604 30.0761C52.3965 30.1293 52.5209 30.2086 52.6263 30.3098C52.7317 30.4109 52.8162 30.5317 52.8748 30.6654C52.9334 30.7991 52.9651 30.9431 52.968 31.089C52.968 31.7334 52.968 32.3779 52.968 33.0223C52.968 42.2223 46.9799 48.889 39.0107 48.889Z" fill="#348D50"/>
<path d="M47.3128 31.1101C42.8607 31.1101 37.5628 30.5101 35.4258 26.4878C34.1987 27.5113 32.7784 28.2786 31.2489 28.7442C29.7195 29.2099 28.112 29.3645 26.5216 29.199C26.3755 29.1961 26.2313 29.1645 26.0974 29.1059C25.9634 29.0474 25.8424 28.9631 25.7411 28.8579C25.6398 28.7526 25.5603 28.6285 25.507 28.4926C25.4538 28.3566 25.4279 28.2115 25.4309 28.0656C25.448 27.7709 25.5774 27.4938 25.7927 27.2913C26.0079 27.0888 26.2927 26.9762 26.5884 26.9767C33.2665 27.1767 34.7357 23.9101 34.7802 23.7767C34.8686 23.5511 35.0257 23.359 35.2295 23.2274C35.4332 23.0958 35.6732 23.0314 35.9155 23.0434C36.1565 23.0628 36.3847 23.1601 36.5654 23.3205C36.7462 23.4808 36.8696 23.6956 36.9172 23.9323C37.9189 28.8212 43.7957 29.0434 50.2734 28.8212H51.2529C51.5412 28.8259 51.8174 28.9378 52.0274 29.1351C52.2374 29.3324 52.366 29.6008 52.3882 29.8878C52.3941 30.0338 52.3712 30.1795 52.3207 30.3166C52.2702 30.4537 52.1932 30.5795 52.0939 30.6868C51.9947 30.7941 51.8752 30.8809 51.7424 30.942C51.6095 31.0032 51.4659 31.0377 51.3197 31.0434H50.2734C49.3385 31.1101 48.359 31.1101 47.3128 31.1101Z" fill="#348D50"/>
<path d="M39.0121 55.9554C38.3732 55.9614 37.7395 55.8401 37.1481 55.5988C36.5566 55.3574 36.0193 55.0008 35.5675 54.5498C35.1157 54.0987 34.7584 53.5623 34.5167 52.9719C34.2749 52.3815 34.1534 51.7488 34.1594 51.111V47.5554C34.1651 47.2625 34.2842 46.9832 34.4917 46.7761C34.6992 46.5689 34.979 46.45 35.2724 46.4443C35.5676 46.4443 35.8507 46.5614 36.0594 46.7698C36.2682 46.9781 36.3854 47.2608 36.3854 47.5554V51.111C36.4456 51.7619 36.7472 52.367 37.2311 52.8074C37.715 53.2479 38.3462 53.4921 39.001 53.4921C39.6558 53.4921 40.2871 53.2479 40.7709 52.8074C41.2548 52.367 41.5564 51.7619 41.6166 51.111V47.5554C41.6166 47.2608 41.7339 46.9781 41.9426 46.7698C42.1513 46.5614 42.4344 46.4443 42.7296 46.4443C43.0248 46.4443 43.3079 46.5614 43.5166 46.7698C43.7254 46.9781 43.8426 47.2608 43.8426 47.5554V51.111C43.8485 51.747 43.7278 52.3777 43.4874 52.9667C43.247 53.5557 42.8918 54.0911 42.4424 54.5418C41.9929 54.9925 41.4582 55.3496 40.8694 55.5923C40.2805 55.835 39.6492 55.9584 39.0121 55.9554Z" fill="#348D50"/>
<path d="M56.2169 32.4221C54.5297 32.4265 52.8792 31.9311 51.4742 30.9985C50.0693 30.066 48.973 28.7383 48.3243 27.1835C47.6756 25.6287 47.5036 23.9167 47.8301 22.2642C48.1565 20.6118 48.9667 19.0931 50.1582 17.9006C51.3496 16.7081 52.8687 15.8953 54.5232 15.5651C56.1776 15.2349 57.893 15.4021 59.4521 16.0456C61.0113 16.6892 62.3442 17.78 63.282 19.1802C64.2198 20.5803 64.7204 22.2267 64.7204 23.911C64.7145 26.1626 63.8175 28.3207 62.2246 29.915C60.6318 31.5092 58.4724 32.4104 56.2169 32.4221ZM56.2169 17.6443C54.9691 17.6399 53.748 18.0056 52.7087 18.6949C51.6693 19.3843 50.8584 20.3662 50.3788 21.5163C49.8993 22.6663 49.7726 23.9326 50.015 25.1546C50.2573 26.3766 50.8578 27.4992 51.7402 28.3801C52.6225 29.2609 53.7471 29.8603 54.9711 30.1023C56.1952 30.3442 57.4637 30.2178 58.6157 29.7391C59.7678 29.2603 60.7514 28.4508 61.4419 27.4132C62.1324 26.3756 62.4987 25.1567 62.4943 23.911C62.4885 22.2508 61.8252 20.6602 60.6492 19.4863C59.4733 18.3123 57.88 17.6502 56.2169 17.6443Z" fill="#348D50"/>
<path d="M54.7712 26.155C54.4886 26.1638 54.2074 26.1107 53.9475 25.9995C53.6936 25.9047 53.4651 25.7526 53.2797 25.555C53.0874 25.374 52.9356 25.1544 52.8345 24.9106C52.7361 24.6397 52.6834 24.3543 52.6787 24.0661C52.6808 23.7922 52.7336 23.5209 52.8345 23.2661C52.9375 23.0168 53.0888 22.7903 53.2798 22.5996C53.4709 22.4089 53.6978 22.2578 53.9475 22.155C54.2074 22.0438 54.4886 21.9907 54.7712 21.9995C55.0959 22.0001 55.416 22.0762 55.7061 22.2217C55.9539 22.3282 56.1801 22.4788 56.3739 22.6661C56.5598 22.848 56.7041 23.0678 56.7969 23.3106C56.9038 23.5714 56.9568 23.851 56.9527 24.1328C56.9562 24.4217 56.9033 24.7086 56.7969 24.9773C56.7041 25.22 56.5598 25.4399 56.3739 25.6217C56.1801 25.809 55.9539 25.9596 55.7061 26.0661C55.4052 26.1661 55.0855 26.1965 54.7712 26.155ZM54.7712 22.8217C54.6022 22.7882 54.4282 22.7882 54.2592 22.8217C54.1163 22.8842 53.9876 22.9749 53.8808 23.0884C53.767 23.2035 53.6763 23.3392 53.6136 23.4884C53.58 23.6496 53.58 23.816 53.6136 23.9773C53.5782 24.1458 53.5782 24.3198 53.6136 24.4884C53.6763 24.6375 53.767 24.7733 53.8808 24.8884C53.992 24.9967 54.1197 25.0867 54.2592 25.155C54.4282 25.1886 54.6022 25.1886 54.7712 25.155C54.9327 25.1886 55.0994 25.1886 55.2609 25.155C55.4103 25.0925 55.5463 25.002 55.6616 24.8884C55.7688 24.7724 55.852 24.6365 55.9065 24.4884C55.9419 24.3198 55.9419 24.1458 55.9065 23.9773C55.9401 23.816 55.9401 23.6496 55.9065 23.4884C55.8434 23.3446 55.761 23.21 55.6616 23.0884C55.5463 22.9748 55.4103 22.8842 55.2609 22.8217C55.0994 22.7881 54.9327 22.7881 54.7712 22.8217Z" fill="#348D50"/>
<path d="M57.5763 26.111C57.47 26.1079 57.3679 26.0687 57.2869 25.9999C57.203 25.9178 57.155 25.806 57.1533 25.6887C57.1564 25.5826 57.1957 25.4807 57.2646 25.3999L58.667 23.7776C58.723 23.7111 58.7681 23.6361 58.8006 23.5554C58.8198 23.4901 58.8198 23.4207 58.8006 23.3554C58.8232 23.268 58.8232 23.1762 58.8006 23.0887C58.7664 23.0217 58.7119 22.9673 58.6448 22.9332C58.5789 22.8892 58.5014 22.8658 58.4222 22.8658C58.3429 22.8658 58.2655 22.8892 58.1996 22.9332C58.1262 22.9697 58.0702 23.0336 58.0437 23.111C58.0208 23.1908 58.0208 23.2755 58.0437 23.3554C58.0446 23.4623 58.0048 23.5655 57.9324 23.6443C57.8502 23.728 57.7382 23.776 57.6208 23.7776C57.5273 23.8116 57.4249 23.8116 57.3314 23.7776C57.2475 23.6956 57.1995 23.5837 57.1978 23.4665C57.1986 23.2327 57.26 23.003 57.3759 22.7999C57.4823 22.6092 57.6355 22.4486 57.8211 22.3332C58.0204 22.2074 58.2534 22.1454 58.4889 22.1554C58.7145 22.1457 58.9382 22.1996 59.1345 22.311C59.328 22.4334 59.4885 22.6012 59.602 22.7999C59.7111 23.0047 59.7648 23.2345 59.7578 23.4665C59.7808 23.5914 59.7808 23.7194 59.7578 23.8443C59.7287 23.9579 59.6755 24.064 59.602 24.1554C59.5424 24.2495 59.4754 24.3387 59.4016 24.4221L58.578 25.3776H59.4907C59.546 25.3759 59.6009 25.387 59.6511 25.4102C59.7014 25.4333 59.7455 25.4678 59.78 25.511C59.8209 25.5474 59.8539 25.5919 59.8768 25.6416C59.8998 25.6913 59.9123 25.7451 59.9136 25.7998C59.9155 25.8583 59.9045 25.9165 59.8814 25.9702C59.8583 26.024 59.8237 26.072 59.78 26.111C59.699 26.1798 59.597 26.219 59.4907 26.2221L57.5763 26.111Z" fill="#348D50"/>
<path d="M16.7077 60.7555C16.4143 60.7498 16.1345 60.631 15.927 60.4238C15.7195 60.2166 15.6004 59.9373 15.5947 59.6444C15.5947 50.2 34.1821 50.0889 34.9612 50.0889C35.2564 50.0889 35.5395 50.2059 35.7482 50.4143C35.957 50.6227 36.0742 50.9053 36.0742 51.2C36.0742 51.4947 35.957 51.7773 35.7482 51.9856C35.5395 52.194 35.2564 52.3111 34.9612 52.3111C30.1975 52.3111 17.8208 53.6444 17.8208 59.6444C17.8208 59.9391 17.7035 60.2217 17.4948 60.4301C17.286 60.6385 17.0029 60.7555 16.7077 60.7555Z" fill="#348D50"/>
<path d="M60.9817 60.7555C60.6883 60.7498 60.4085 60.631 60.201 60.4238C59.9935 60.2166 59.8744 59.9373 59.8687 59.6444C59.8687 53.6222 47.5142 52.3111 42.7283 52.3111C42.4331 52.3111 42.15 52.194 41.9412 51.9856C41.7325 51.7773 41.6152 51.4947 41.6152 51.2C41.6152 50.9053 41.7325 50.6227 41.9412 50.4143C42.15 50.2059 42.4331 50.0889 42.7283 50.0889C43.5296 50.0889 62.0947 50.2 62.0947 59.6444C62.0947 59.9391 61.9775 60.2217 61.7687 60.4301C61.56 60.6385 61.2769 60.7555 60.9817 60.7555Z" fill="#348D50"/>
<path d="M58.1764 48.2215C57.2289 48.2259 56.3014 47.9495 55.5114 47.4271C54.7214 46.9048 54.1046 46.1602 53.7389 45.2876C53.3732 44.4149 53.2753 43.4536 53.4574 42.5253C53.6396 41.5971 54.0936 40.7437 54.7621 40.0733C55.4305 39.4029 56.2832 38.9456 57.2122 38.7595C58.1412 38.5733 59.1047 38.6666 59.9805 39.0276C60.8563 39.3885 61.6051 40.0009 62.132 40.7871C62.6588 41.5732 62.9401 42.4978 62.9401 43.4437C62.943 44.0701 62.822 44.6909 62.5839 45.2704C62.3458 45.85 61.9954 46.3769 61.5527 46.8208C61.1101 47.2648 60.584 47.617 60.0046 47.8574C59.4251 48.0978 58.8039 48.2215 58.1764 48.2215ZM58.1764 40.9104C57.6682 40.906 57.1702 41.0527 56.7459 41.3318C56.3215 41.6109 55.9899 42.0098 55.7934 42.4777C55.5969 42.9456 55.5443 43.4612 55.6424 43.959C55.7405 44.4568 55.9847 44.9142 56.3441 45.2729C56.7034 45.6317 57.1616 45.8755 57.6603 45.9734C58.1589 46.0713 58.6754 46.0188 59.1441 45.8226C59.6128 45.6265 60.0123 45.2955 60.2919 44.8718C60.5715 44.4482 60.7185 43.951 60.7141 43.4437C60.7141 42.7719 60.4467 42.1275 59.9708 41.6524C59.4949 41.1773 58.8494 40.9104 58.1764 40.9104Z" fill="#348D50"/>
<path d="M48.2466 64.4438C47.4314 64.4475 46.6333 64.2097 45.9535 63.7602C45.2738 63.3108 44.743 62.6701 44.4284 61.9192C44.1137 61.1684 44.0295 60.3412 44.1862 59.5425C44.3429 58.7437 44.7336 58.0094 45.3088 57.4326C45.8839 56.8557 46.6177 56.4623 47.417 56.3021C48.2164 56.1419 49.0454 56.2222 49.799 56.5328C50.5526 56.8434 51.1969 57.3703 51.6502 58.0467C52.1036 58.7232 52.3456 59.5188 52.3456 60.3327C52.3481 60.8717 52.244 61.4058 52.0391 61.9045C51.8342 62.4032 51.5327 62.8565 51.1518 63.2385C50.771 63.6205 50.3182 63.9236 49.8197 64.1305C49.3211 64.3373 48.7865 64.4438 48.2466 64.4438ZM48.2466 58.1529C47.8094 58.1491 47.3809 58.2753 47.0157 58.5155C46.6506 58.7557 46.3653 59.0989 46.1962 59.5015C46.0271 59.904 45.9819 60.3477 46.0663 60.7761C46.1506 61.2044 46.3608 61.5979 46.67 61.9066C46.9792 62.2153 47.3735 62.4251 47.8025 62.5093C48.2316 62.5936 48.676 62.5484 49.0793 62.3796C49.4826 62.2108 49.8264 61.926 50.067 61.5615C50.3075 61.197 50.434 60.7692 50.4302 60.3327C50.4302 59.7546 50.2001 59.2001 49.7906 58.7913C49.3812 58.3825 48.8258 58.1529 48.2466 58.1529Z" fill="#348D50"/>
</svg>
