<svg width="81" height="80" viewBox="0 0 81 80" fill="none" xmlns="http://www.w3.org/2000/svg">
<path d="M40.1233 80C32.1985 80 24.4516 77.654 17.8624 73.2588C11.2731 68.8635 6.13744 62.6164 3.10475 55.3073C0.0720484 47.9983 -0.721443 39.9556 0.824612 32.1964C2.37067 24.4372 6.18683 17.3098 11.7905 11.7157C17.3942 6.12165 24.5338 2.31202 32.3063 0.768607C40.0789 -0.774802 48.1353 0.0173314 55.4569 3.04484C62.7785 6.07234 69.0363 11.1992 73.4391 17.7772C77.8419 24.3552 80.1919 32.0888 80.1919 40C80.1919 50.6087 75.9704 60.7828 68.4561 68.2843C60.9418 75.7857 50.7502 80 40.1233 80ZM40.1233 2.22224C32.6388 2.22224 25.3223 4.43787 19.0991 8.58894C12.8759 12.74 8.02555 18.6401 5.16133 25.5431C2.29712 32.4461 1.54771 40.0419 3.00787 47.3701C4.46804 54.6983 8.07219 61.4296 13.3646 66.7129C18.6569 71.9962 25.3998 75.5942 32.7406 77.0519C40.0813 78.5096 47.6902 77.7614 54.605 74.9021C61.5199 72.0428 67.43 67.2007 71.5882 60.9882C75.7464 54.7757 77.9659 47.4717 77.9659 40C77.9659 29.9807 73.9789 20.3718 66.882 13.2871C59.7852 6.20239 50.1598 2.22224 40.1233 2.22224Z" fill="#32A37F"/>
<path d="M41.2568 36.1771C41.004 36.1721 40.7605 36.0813 40.5663 35.9198C40.3721 35.7582 40.2388 35.5355 40.1883 35.2882C40.1883 35.0215 39.0975 29.1549 42.2362 25.466C45.3749 21.7771 51.3407 21.866 51.6078 21.8438C51.8625 21.8538 52.1064 21.9492 52.3003 22.1144C52.4941 22.2797 52.6265 22.5053 52.6763 22.7549C52.6763 22.9993 53.7671 28.866 50.6284 32.5549C49.3859 33.7503 47.9172 34.6863 46.308 35.3083C44.6989 35.9302 42.9816 36.2256 41.2568 36.1771ZM50.4948 24.1104C48.0035 24.1902 45.6277 25.1784 43.8167 26.8882C42.4138 28.9442 41.8194 31.4443 42.1472 33.9104C44.6385 33.8306 47.0142 32.8424 48.8253 31.1326C50.2594 29.0887 50.8858 26.5876 50.5839 24.1104H50.4948Z" fill="#32A37F"/>
<path d="M41.2551 36.1562C41.0444 36.1544 40.8385 36.093 40.6613 35.979C40.4842 35.865 40.3431 35.7031 40.2545 35.5123C40.1659 35.3214 40.1334 35.1093 40.1608 34.9007C40.1882 34.6921 40.2743 34.4956 40.4092 34.3339L45.5513 28.2673C45.7483 28.0484 46.0214 27.9127 46.3151 27.8879C46.6088 27.8631 46.9009 27.9511 47.1318 28.1339C47.356 28.3275 47.4954 28.6009 47.5204 28.8957C47.5453 29.1905 47.4538 29.4834 47.2654 29.7117L42.1232 35.7562C42.0174 35.883 41.8846 35.9848 41.7344 36.054C41.5842 36.1232 41.4205 36.1581 41.2551 36.1562Z" fill="#32A37F"/>
<path d="M58.1504 64.8889H31.3044C30.4888 64.8744 29.684 64.6997 28.9361 64.3747C28.1881 64.0497 27.5116 63.5807 26.9452 62.9947C26.3788 62.4086 25.9336 61.7169 25.635 60.959C25.3364 60.2012 25.1904 59.392 25.2051 58.5778V23.0222C25.2051 22.7276 25.3224 22.4449 25.5311 22.2366C25.7398 22.0282 26.0229 21.9111 26.3181 21.9111C26.6133 21.9111 26.8964 22.0282 27.1052 22.2366C27.3139 22.4449 27.4311 22.7276 27.4311 23.0222V58.5778C27.3907 59.1087 27.4606 59.6423 27.6364 60.145C27.8122 60.6477 28.09 61.1087 28.4526 61.4993C28.8152 61.8898 29.2547 62.2013 29.7435 62.4144C30.2323 62.6274 30.7599 62.7374 31.2933 62.7374C31.8267 62.7374 32.3543 62.6274 32.8431 62.4144C33.3319 62.2013 33.7714 61.8898 34.134 61.4993C34.4966 61.1087 34.7745 60.6477 34.9502 60.145C35.126 59.6423 35.1959 59.1087 35.1555 58.5778C35.1555 58.2831 35.2727 58.0005 35.4815 57.7921C35.6902 57.5837 35.9733 57.4667 36.2685 57.4667H63.1145C63.4097 57.4667 63.6928 57.5837 63.9015 57.7921C64.1102 58.0005 64.2275 58.2831 64.2275 58.5778C64.2452 59.3909 64.1019 60.1996 63.8058 60.9573C63.5097 61.7151 63.0666 62.407 62.502 62.9933C61.9373 63.5797 61.2623 64.049 60.5155 64.3743C59.7688 64.6996 58.965 64.8745 58.1504 64.8889ZM35.8901 62.6667H58.1504C59.0118 62.6475 59.8429 62.3454 60.5149 61.807C61.187 61.2687 61.6625 60.5243 61.8679 59.6889H37.3815C37.1721 60.792 36.6728 61.8197 35.9346 62.6667H35.8901Z" fill="#32A37F"/>
<path d="M26.321 59.0881C26.0276 59.0824 25.7478 58.9635 25.5403 58.7564C25.3328 58.5492 25.2137 58.2699 25.208 57.977V22.2215C25.208 21.9268 25.3253 21.6442 25.534 21.4358C25.7427 21.2274 26.0258 21.1104 26.321 21.1104C26.6162 21.1104 26.8993 21.2274 27.108 21.4358C27.3168 21.6442 27.434 21.9268 27.434 22.2215V57.977C27.434 58.2717 27.3168 58.5543 27.108 58.7627C26.8993 58.9711 26.6162 59.0881 26.321 59.0881Z" fill="#32A37F"/>
<path d="M36.2719 59.6884C35.9767 59.6884 35.6936 59.5713 35.4849 59.363C35.2761 59.1546 35.1589 58.872 35.1589 58.5773V40.2662C35.135 38.6235 35.7629 37.038 36.9055 35.8557C38.0482 34.6733 39.6129 33.9901 41.2582 33.9551C41.5534 33.9551 41.8365 34.0721 42.0452 34.2805C42.2539 34.4889 42.3712 34.7715 42.3712 35.0662C42.3712 35.2121 42.3424 35.3566 42.2865 35.4914C42.2305 35.6262 42.1486 35.7487 42.0452 35.8519C41.9419 35.955 41.8192 36.0369 41.6841 36.0927C41.5491 36.1486 41.4044 36.1773 41.2582 36.1773C40.2072 36.2179 39.2142 36.6694 38.4938 37.4343C37.7733 38.1993 37.383 39.2165 37.4072 40.2662V58.5773C37.4072 58.7251 37.3777 58.8714 37.3204 59.0077C37.263 59.144 37.179 59.2675 37.0733 59.3709C36.9676 59.4744 36.8423 59.5558 36.7046 59.6103C36.567 59.6648 36.4199 59.6914 36.2719 59.6884Z" fill="#32A37F"/>
<path d="M58.3528 59.6889C58.0577 59.6889 57.7746 59.5718 57.5658 59.3634C57.3571 59.1551 57.2398 58.8725 57.2398 58.5778V22.2222C57.2462 21.1861 56.8474 20.1884 56.1282 19.4414C55.4089 18.6943 54.4261 18.2569 53.3888 18.2222H21.3562C21.061 18.2222 20.7779 18.1052 20.5692 17.8968C20.3604 17.6884 20.2432 17.4058 20.2432 17.1111C20.2432 16.8164 20.3604 16.5338 20.5692 16.3254C20.7779 16.1171 21.061 16 21.3562 16H53.3888C55.0166 16.0349 56.5655 16.7066 57.7021 17.8703C58.8387 19.0341 59.4721 20.5969 59.4659 22.2222V58.5778C59.4659 58.8725 59.3486 59.1551 59.1399 59.3634C58.9311 59.5718 58.648 59.6889 58.3528 59.6889Z" fill="#32A37F"/>
<path d="M21.2247 28.3114C20.0043 28.3026 18.814 27.9323 17.8044 27.2477C16.7949 26.563 16.0117 25.5946 15.5538 24.4652C15.096 23.3358 14.9842 22.0962 15.2326 20.9033C15.481 19.7104 16.0784 18.6179 16.9491 17.7642C17.8199 16.9105 18.9249 16.334 20.1241 16.1077C21.3233 15.8813 22.5628 16.0153 23.6857 16.4927C24.8086 16.9701 25.7643 17.7694 26.4318 18.7894C27.0993 19.8094 27.4486 21.0042 27.4354 22.2225C27.4178 23.8512 26.7542 25.4066 25.5901 26.5479C24.426 27.6891 22.8563 28.3233 21.2247 28.3114ZM21.2247 18.2225C20.4503 18.2314 19.6956 18.4679 19.0551 18.9025C18.4145 19.3371 17.9165 19.9506 17.6232 20.6662C17.3299 21.3817 17.2544 22.1678 17.4061 22.926C17.5577 23.6842 17.9299 24.3809 18.476 24.9292C19.0222 25.4774 19.718 25.8528 20.4767 26.0084C21.2353 26.1641 22.0231 26.0931 22.7415 25.8043C23.46 25.5155 24.0772 25.0217 24.5161 24.3847C24.9551 23.7476 25.1962 22.9956 25.2093 22.2225C25.2153 21.6975 25.1164 21.1765 24.9185 20.69C24.7207 20.2035 24.4277 19.7612 24.0569 19.3888C23.686 19.0165 23.2445 18.7216 22.7583 18.5214C22.272 18.3212 21.7507 18.2196 21.2247 18.2225Z" fill="#32A37F"/>
</svg>
